<?xml version="1.0" encoding="utf-8"?>
<!-- Generator: Adobe Illustrator 15.0.0, SVG Export Plug-In . SVG Version: 6.00 Build 0)  -->
<!DOCTYPE svg PUBLIC "-//W3C//DTD SVG 1.1//EN" "http://www.w3.org/Graphics/SVG/1.1/DTD/svg11.dtd">
<svg version="1.1" id="Layer_1" xmlns="http://www.w3.org/2000/svg" xmlns:xlink="http://www.w3.org/1999/xlink" x="0px" y="0px"
	 width="225.5px" height="41px" viewBox="0 12 225.5 41" enable-background="new 0 12 225.5 41" xml:space="preserve">
<g>
	<path d="M12.333,18.781c4.151,0,6.284,2.482,6.284,6.827v0.854h-4.033v-1.125c0-1.939-0.776-2.676-2.134-2.676
		c-1.358,0-2.133,0.737-2.133,2.676c0,5.586,8.34,6.633,8.34,14.391c0,4.346-2.172,6.827-6.361,6.827
		c-4.19,0-6.362-2.481-6.362-6.827v-1.667h4.034v1.938c0,1.939,0.854,2.639,2.211,2.639c1.358,0,2.21-0.699,2.21-2.639
		c0-5.585-8.34-6.633-8.34-14.391C6.049,21.264,8.182,18.781,12.333,18.781z"/>
	<path d="M20.75,25.608c0-4.344,2.289-6.827,6.478-6.827c4.19,0,6.479,2.482,6.479,6.827v14.12c0,4.346-2.289,6.827-6.479,6.827
		c-4.189,0-6.478-2.481-6.478-6.827V25.608z M25.017,39.999c0,1.939,0.854,2.678,2.21,2.678c1.358,0,2.211-0.737,2.211-2.678V25.336
		c0-1.939-0.854-2.676-2.211-2.676c-1.357,0-2.21,0.737-2.21,2.676V39.999z"/>
	<path d="M40.727,31.155h5.508v3.879h-5.508v11.211H36.46V19.092h11.288v3.879h-7.021V31.155z"/>
	<path d="M48.563,19.092h13.189v3.879h-4.461v23.274h-4.267V22.971h-4.461L48.563,19.092L48.563,19.092z"/>
	<path d="M73.078,31.776l-1.552,14.469h-5.857l-3.026-27.153h4.151l2.288,21.413l2.056-21.413h4.112l2.134,21.567l2.21-21.567h3.725
		l-3.026,27.153h-5.664L73.078,31.776z"/>
	<path d="M98.679,46.245h-4.306l-0.737-4.927H88.4l-0.737,4.927h-3.917l4.344-27.154h6.245L98.679,46.245z M88.943,37.633h4.112
		l-2.056-13.732L88.943,37.633z"/>
	<path d="M109.58,46.245c-0.233-0.699-0.389-1.126-0.389-3.336v-4.267c0-2.521-0.853-3.453-2.792-3.453h-1.475v11.057h-4.267V19.092
		h6.439c4.422,0,6.323,2.056,6.323,6.245v2.133c0,2.792-0.893,4.617-2.792,5.508c2.132,0.892,2.831,2.948,2.831,5.78v4.189
		c0,1.318,0.04,2.288,0.466,3.298H109.58z M104.924,22.971v8.34h1.667c1.591,0,2.56-0.697,2.56-2.87v-2.676
		c0-1.94-0.659-2.793-2.172-2.793H104.924z"/>
	<path d="M119.742,30.535h5.857v3.878h-5.857v7.954h7.371v3.879h-11.637V19.092h11.637v3.879h-7.371V30.535z"/>
	<path d="M141.34,18.609c0.346,0,0.521,0.05,0.521,0.149l-0.804,4.137c-0.336,0.159-0.649,0.239-0.938,0.239h-0.387
		c-0.219,0-0.392-0.799-0.521-2.396c-1.636,0.308-2.927,0.665-3.87,1.072c-1.479,0.784-2.466,1.776-2.96,2.976
		c-0.636,1.291-0.952,3.255-0.952,5.895v1.979c0,3.958,0.143,6.226,0.431,6.801c0.485,1.538,1.269,2.605,2.351,3.199
		c0.912,0.506,1.969,0.759,3.169,0.759c1.13,0,2.589-0.282,4.375-0.848c0.316,0.654,0.476,1.142,0.476,1.458v0.193
		c0,0.465-0.486,0.807-1.458,1.026c-1.677,0.664-3.264,0.996-4.762,0.996c-3.86,0-6.186-2.64-6.979-7.917
		c-0.159-1.369-0.239-2.709-0.239-4.018c0-2.718,0.312-6.255,0.938-10.611c0.099-0.665,0.65-1.528,1.652-2.59
		C133.387,19.442,136.705,18.609,141.34,18.609z"/>
	<path d="M143.899,18.802h0.461c0.418,0,0.705,0.029,0.864,0.089l0.417-0.044c2.599,0,5.104,0.6,7.515,1.801
		c1.886,1.2,2.828,2.693,2.828,4.479v0.477c0,2.619-1.588,4.668-4.764,6.146L150.7,31.93c3.146,7.372,4.718,11.593,4.718,12.666
		v0.133c-0.158,0.794-0.68,1.191-1.562,1.191h-0.134c-0.128-0.07-0.635-1.143-1.518-3.217l-4.583-9.97l-1.266,0.149l0.089,13.083
		c0,0.188-0.219,0.282-0.654,0.282h-0.193c-0.794,0-1.517-0.109-2.173-0.327l0.045-0.284l0.104-26.593
		C143.61,18.882,143.721,18.802,143.899,18.802z M146.206,21.868l0.104,9.033c0.565,0,1.855-0.491,3.869-1.473
		c1.637-1.09,2.456-2.272,2.456-3.542v-0.328c0-1.875-1.861-3.09-5.581-3.646L146.206,21.868z"/>
	<path d="M157.918,18.729c0.485,0,1.131,0.094,1.935,0.283l0.045,6.905v19.242c0,0.725-0.158,1.087-0.477,1.087h-0.372
		c-0.773,0-1.399-0.139-1.875-0.418V19.01C157.263,18.822,157.511,18.729,157.918,18.729z"/>
	<path d="M168.097,18.639c3.353,0,5.433,0.769,6.236,2.307c0.655,0.934,1.15,2.55,1.487,4.852c0.485,3.463,0.729,6.295,0.729,8.498
		v0.759c0,5.387-1.618,8.925-4.851,10.611c-0.935,0.387-1.812,0.58-2.635,0.58h-0.298c-2.481,0-4.495-2.128-6.042-6.385
		c-1.092-3.709-1.637-7.312-1.637-10.804c0-5.438,1.746-8.815,5.237-10.135C167.12,18.733,167.711,18.639,168.097,18.639z
		 M163.782,28.044c0,3.532,0.604,7.262,1.815,11.191c0.872,2.301,2.123,3.453,3.75,3.453c1.646-0.181,2.56-0.468,2.737-0.863
		c0.478-0.328,0.894-1.099,1.25-2.309c0.379-1.259,0.565-3.02,0.565-5.283v-0.089c0-4.722-0.446-8.26-1.339-10.61
		c-0.824-1.469-1.896-2.204-3.215-2.204h-0.149c-1.319,0.119-2.648,0.709-3.988,1.771c-0.616,0.496-1.048,1.359-1.295,2.589
		C163.826,26.626,163.782,27.409,163.782,28.044z"/>
	<path d="M178.456,18.564c0.743,0.06,1.384,0.188,1.919,0.388l-0.149,24.718c4.781-0.387,8.13-0.629,10.045-0.729
		c0.12,0,0.214,0.447,0.283,1.341c-0.021,0.992-0.086,1.487-0.193,1.487l-12.573,0.477l-0.046-0.045V19.13
		C177.741,18.753,177.979,18.564,178.456,18.564z"/>
	<path d="M192.459,18.564c0.744,0.06,1.384,0.188,1.92,0.388l-0.149,24.718c4.781-0.387,8.129-0.629,10.045-0.729
		c0.12,0,0.214,0.447,0.283,1.341c-0.02,0.992-0.086,1.487-0.193,1.487l-12.574,0.477l-0.045-0.045V19.13
		C191.745,18.753,191.983,18.564,192.459,18.564z"/>
	<path d="M210.32,18.639c3.353,0,5.432,0.769,6.234,2.307c0.656,0.934,1.15,2.55,1.488,4.852c0.486,3.463,0.729,6.295,0.729,8.498
		v0.759c0,5.387-1.617,8.925-4.852,10.611c-0.933,0.387-1.811,0.58-2.634,0.58h-0.299c-2.479,0-4.494-2.128-6.041-6.385
		c-1.092-3.709-1.637-7.312-1.637-10.804c0-5.438,1.746-8.815,5.238-10.135C209.342,18.733,209.934,18.639,210.32,18.639z
		 M206.005,28.044c0,3.532,0.604,7.262,1.814,11.191c0.873,2.301,2.123,3.453,3.75,3.453c1.646-0.181,2.56-0.468,2.738-0.863
		c0.478-0.328,0.893-1.099,1.249-2.309c0.377-1.259,0.565-3.02,0.565-5.283v-0.089c0-4.722-0.445-8.26-1.339-10.61
		c-0.824-1.469-1.896-2.204-3.216-2.204h-0.148c-1.32,0.119-2.649,0.709-3.988,1.771c-0.615,0.496-1.047,1.359-1.295,2.589
		C206.049,26.626,206.005,27.409,206.005,28.044z"/>
</g>
</svg>
